<svg width="409" height="342" viewBox="0 0 409 342" fill="none" xmlns="http://www.w3.org/2000/svg">
<g filter="url(#filter0_d_6:309)">
<rect x="31" y="26" width="347" height="280" rx="13" fill="white"/>
</g>
<g clip-path="url(#clip0_6:309)">
<path d="M311.137 200.315L308.907 201.003L305.095 193.031L308.386 192.015L311.137 200.315Z" fill="#FFB6B6"/>
<path d="M312.396 202.225L305.207 204.444L305.178 204.357C304.94 203.64 305.008 202.862 305.365 202.194C305.721 201.526 306.339 201.021 307.081 200.792L307.081 200.792L308.076 199.425L310.845 199.63L311.472 199.437L312.396 202.225Z" fill="#2F2E41"/>
<path d="M289.996 202.461H287.655L286.542 193.747H289.996L289.996 202.461Z" fill="#FFB6B6"/>
<path d="M290.593 204.651L283.045 204.651V204.559C283.045 203.807 283.355 203.085 283.906 202.554C284.456 202.022 285.204 201.723 285.983 201.723H285.983L287.362 200.714L289.934 201.723L290.593 201.723L290.593 204.651Z" fill="#2F2E41"/>
<path d="M278.815 112.409C278.639 112.62 278.514 112.866 278.448 113.129C278.381 113.393 278.375 113.667 278.43 113.932C278.486 114.198 278.6 114.449 278.767 114.667C278.933 114.885 279.147 115.065 279.394 115.195L278.271 121.691L281.512 120.303L282.082 114.347C282.28 113.933 282.314 113.463 282.177 113.026C282.041 112.59 281.743 112.217 281.34 111.978C280.938 111.739 280.458 111.651 279.993 111.73C279.527 111.81 279.108 112.051 278.815 112.409Z" fill="#FFB6B6"/>
<path d="M308.365 166.293C308.365 166.293 308.911 159.431 306.976 158.156C305.041 156.882 289.086 156.24 289.086 156.24L288.095 157.498C288.095 157.498 288.005 158.085 286.503 162.869L285.891 189.571C285.83 192.174 285.36 195.445 286.486 196.113L287.034 198.756H290.046L291.71 194.313C292.427 193.195 292.732 191.877 292.577 190.571L293.485 186.649C293.422 186.587 293.377 186.51 293.356 186.425C293.253 185.841 293.389 185.241 293.736 184.751C293.816 184.637 293.904 184.528 294 184.426L297.329 170.056L301.819 186.865L304.59 192.836C304.318 193.462 304.499 194.029 304.996 194.555C304.811 195.044 305.609 195.388 305.951 196.021L307.022 197.963L310.033 196.378L310.307 194.792C310.49 194.322 309.999 194.01 309.638 193.034C310.312 192.343 310.275 191.67 309.625 191.012L308.487 186.274L308.474 184.102L308.459 181.781L308.365 166.293Z" fill="#2F2E41"/>
<path d="M295.772 125.497C298.662 125.497 301.004 123.236 301.004 120.447C301.004 117.659 298.662 115.398 295.772 115.398C292.883 115.398 290.54 117.659 290.54 120.447C290.54 123.236 292.883 125.497 295.772 125.497Z" fill="#FFB6B6"/>
<path d="M301.036 121.238L300.949 121.071C300.816 120.813 299.709 118.669 299.571 118.118L298.178 118.276L294.553 118.277L295.056 117.547L293.724 117.715C293.237 117.772 292.772 117.941 292.367 118.209C292.119 118.368 291.909 118.577 291.751 118.821C291.276 119.608 290.549 120.894 290.541 120.907L290.472 121.03L289.868 120.049C289.86 120.011 289.111 116.243 291.617 114.965C291.974 114.291 292.526 113.733 293.207 113.358C293.888 112.983 294.667 112.808 295.449 112.854C295.735 112.539 296.138 112.346 296.571 112.316C297.165 112.286 297.782 112.587 298.402 113.215C299.225 114.049 300.352 115.191 301.034 116.459L301.222 116.718C301.489 117.088 301.621 117.534 301.598 117.985C301.743 118.704 301.691 119.448 301.448 120.142L301.036 121.238Z" fill="#2F2E41"/>
<path d="M308.341 130.056L302.654 128.519L299.759 126.447L294.072 127.322L294.047 127.353C293.051 128.602 291.516 129.835 289.885 129.884C289.465 129.897 289.048 129.955 288.641 130.056L288.095 139.69V148.304C288.18 148.332 288.257 148.38 288.317 148.445C288.377 148.509 288.419 148.587 288.439 148.672C288.599 149.55 288.584 150.45 288.394 151.322C288.327 151.627 288.227 151.923 288.095 152.207C288.254 152.524 288.336 152.872 288.336 153.224C288.336 153.576 288.254 153.924 288.095 154.241C287.609 154.688 287.672 155.176 288.095 155.689V157.498C297.326 164.93 306.952 158.566 306.952 158.566L306.643 144.419L308.341 130.056Z" fill="#3F3D56"/>
<path d="M289.917 131.379L288.641 130.056L281.612 129.288L282.271 118.869L278.439 116.23L276.703 125.272C276.107 125.77 275.996 126.261 276.421 126.743C275.943 127.665 275.82 128.415 275.983 129.027L275.623 130.898L288.63 139.69L289.917 131.379Z" fill="#3F3D56"/>
<path d="M307.303 165.448C307.152 165.219 307.054 164.962 307.017 164.693C306.98 164.425 307.004 164.152 307.089 163.893C307.173 163.635 307.314 163.397 307.504 163.198C307.694 162.998 307.926 162.84 308.186 162.737L307.785 156.163L310.855 157.876L310.765 163.856C310.916 164.288 310.898 164.759 310.714 165.179C310.53 165.599 310.193 165.939 309.766 166.136C309.34 166.332 308.853 166.37 308.399 166.243C307.945 166.117 307.555 165.833 307.303 165.448Z" fill="#FFB6B6"/>
<path d="M306.204 131.7L308.341 130.056C308.341 130.056 310.525 131.219 311.19 133.304C311.855 135.389 313.018 147.258 313.018 147.258L313.198 151.678C313.428 152.379 313.367 153.004 312.82 153.502C313.643 154.324 313.52 155.009 312.396 155.548L311.23 162.496L307.569 161.763L308.032 148.06L305.041 139.239L306.204 131.7Z" fill="#3F3D56"/>
<path d="M159.989 77.2705H159.24V57.4637C159.24 55.9582 158.933 54.4676 158.336 53.0767C157.739 51.6859 156.864 50.4221 155.761 49.3576C154.658 48.2931 153.348 47.4487 151.907 46.8726C150.466 46.2965 148.921 46 147.361 46H103.879C100.728 46 97.7069 47.2078 95.4792 49.3576C93.2515 51.5075 92 54.4233 92 57.4636V166.126C92 169.166 93.2515 172.082 95.4792 174.232C97.7069 176.382 100.728 177.589 103.879 177.589H147.361C148.921 177.589 150.466 177.293 151.907 176.717C153.348 176.141 154.658 175.296 155.761 174.232C156.864 173.167 157.739 171.904 158.336 170.513C158.933 169.122 159.24 167.631 159.24 166.126V91.3694H159.989V77.2705Z" fill="#3F3D56"/>
<path d="M147.841 48.9825H142.165C142.426 49.6 142.525 50.2701 142.455 50.9336C142.384 51.5971 142.146 52.2337 141.76 52.7872C141.375 53.3408 140.854 53.7944 140.244 54.1081C139.634 54.4217 138.954 54.5858 138.263 54.5858H113.352C112.661 54.5858 111.98 54.4217 111.37 54.1081C110.76 53.7944 110.24 53.3408 109.854 52.7872C109.469 52.2337 109.23 51.5971 109.16 50.9336C109.089 50.2701 109.189 49.6 109.45 48.9824H104.149C101.796 48.9824 99.5396 49.8844 97.8759 51.4899C96.2123 53.0954 95.2777 55.2729 95.2777 57.5434V166.046C95.2777 167.17 95.5072 168.283 95.953 169.322C96.3988 170.361 97.0522 171.305 97.8759 172.1C98.6997 172.894 99.6776 173.525 100.754 173.955C101.83 174.386 102.984 174.607 104.149 174.607H147.841C149.006 174.607 150.159 174.386 151.235 173.955C152.312 173.525 153.29 172.894 154.113 172.1C154.937 171.305 155.591 170.361 156.036 169.322C156.482 168.284 156.712 167.17 156.712 166.046V57.5434C156.712 56.4192 156.482 55.3059 156.036 54.2673C155.591 53.2286 154.937 52.2848 154.113 51.4899C153.29 50.6949 152.312 50.0643 151.235 49.6341C150.159 49.2039 149.006 48.9825 147.841 48.9825Z" fill="white"/>
<path d="M147.421 89.6207C147.424 92.0855 146.968 94.5308 146.076 96.8401C145.671 97.8979 145.174 98.9208 144.59 99.8978C142.713 103.058 140.006 105.683 136.741 107.509C133.475 109.335 129.768 110.297 125.995 110.297C122.221 110.297 118.514 109.335 115.249 107.509C111.983 105.683 109.276 103.058 107.399 99.8978C107.209 99.58 107.029 99.2575 106.859 98.9302C105.402 96.142 104.619 93.0717 104.568 89.9497C104.516 86.8277 105.198 83.7349 106.562 80.9036C107.926 78.0722 109.937 75.5756 112.444 73.6012C114.95 71.6269 117.887 70.2259 121.035 69.5035C124.183 68.781 127.459 68.7559 130.618 69.4299C133.777 70.1039 136.738 71.4596 139.276 73.3953C141.815 75.3309 143.867 77.7963 145.277 80.6064C146.688 83.4164 147.42 86.4983 147.421 89.6207Z" fill="#F1F1F1"/>
<path d="M127.109 93.1115C129.371 93.1115 131.205 91.3417 131.205 89.1584C131.205 86.9752 129.371 85.2053 127.109 85.2053C124.846 85.2053 123.012 86.9752 123.012 89.1584C123.012 91.3417 124.846 93.1115 127.109 93.1115Z" fill="#FF6582"/>
<path d="M106.859 98.9302C108.664 97.0479 111.076 94.0596 113.339 96.2189C114.475 97.2374 116.252 99.7613 117.953 98.1113L131.239 85.2899C131.489 85.0516 131.786 84.864 132.112 84.738C132.439 84.612 132.788 84.5502 133.139 84.5563C133.491 84.5624 133.837 84.6362 134.159 84.7733C134.48 84.9105 134.77 85.1083 135.011 85.3551L146.076 96.8402C145.671 97.8979 145.174 98.9208 144.59 99.8978H107.399L106.859 98.9302Z" fill="#97A3E8"/>
<path d="M136.048 131.61C135.901 131.61 135.761 131.667 135.657 131.767C135.554 131.867 135.496 132.003 135.496 132.144C135.496 132.286 135.554 132.421 135.657 132.522C135.761 132.622 135.901 132.678 136.048 132.678H141.856C142.003 132.678 142.144 132.622 142.248 132.522C142.352 132.422 142.41 132.286 142.41 132.144C142.41 132.003 142.352 131.867 142.248 131.767C142.144 131.666 142.003 131.61 141.856 131.61H136.048Z" fill="#97A3E8"/>
<path d="M109.879 123.764C109.732 123.764 109.591 123.82 109.488 123.92C109.384 124.021 109.325 124.156 109.325 124.298C109.325 124.44 109.384 124.576 109.488 124.676C109.591 124.776 109.732 124.832 109.879 124.832H142.11C142.257 124.832 142.398 124.776 142.502 124.676C142.606 124.576 142.664 124.44 142.664 124.298C142.664 124.156 142.606 124.021 142.502 123.92C142.398 123.82 142.257 123.764 142.11 123.764H109.879Z" fill="#E5E5E5"/>
<path d="M109.879 127.687C109.732 127.687 109.592 127.744 109.488 127.844C109.385 127.944 109.327 128.08 109.327 128.221C109.327 128.363 109.385 128.498 109.488 128.598C109.592 128.699 109.732 128.755 109.879 128.755H142.11C142.183 128.756 142.255 128.742 142.323 128.715C142.39 128.688 142.451 128.649 142.503 128.599C142.554 128.55 142.595 128.491 142.623 128.426C142.651 128.361 142.665 128.291 142.665 128.221C142.665 128.151 142.651 128.081 142.623 128.016C142.595 127.952 142.554 127.893 142.503 127.843C142.451 127.793 142.39 127.754 142.323 127.727C142.255 127.701 142.183 127.687 142.11 127.687H109.879Z" fill="#E5E5E5"/>
<path d="M136.048 156.783C135.901 156.783 135.76 156.839 135.656 156.939C135.553 157.04 135.494 157.176 135.494 157.317C135.494 157.459 135.553 157.595 135.656 157.695C135.76 157.795 135.901 157.851 136.048 157.851H141.856C142.003 157.851 142.144 157.795 142.248 157.695C142.352 157.595 142.41 157.459 142.41 157.317C142.41 157.176 142.352 157.04 142.248 156.939C142.144 156.839 142.003 156.783 141.856 156.783H136.048Z" fill="#97A3E8"/>
<path d="M109.879 148.937C109.732 148.937 109.591 148.993 109.488 149.093C109.384 149.194 109.325 149.329 109.325 149.471C109.325 149.613 109.384 149.749 109.488 149.849C109.591 149.949 109.732 150.005 109.879 150.005H142.11C142.183 150.005 142.255 149.992 142.323 149.965C142.39 149.938 142.451 149.899 142.503 149.849C142.554 149.8 142.595 149.741 142.623 149.676C142.651 149.611 142.665 149.541 142.665 149.471C142.665 149.401 142.651 149.331 142.623 149.266C142.595 149.201 142.554 149.143 142.503 149.093C142.451 149.043 142.39 149.004 142.323 148.977C142.255 148.95 142.183 148.937 142.11 148.937H109.879Z" fill="#E5E5E5"/>
<path d="M109.879 152.86C109.732 152.86 109.591 152.916 109.488 153.016C109.384 153.117 109.325 153.252 109.325 153.394C109.325 153.536 109.384 153.672 109.488 153.772C109.591 153.872 109.732 153.928 109.879 153.928H142.11C142.257 153.928 142.398 153.872 142.502 153.772C142.606 153.672 142.664 153.536 142.664 153.394C142.664 153.252 142.606 153.117 142.502 153.016C142.398 152.916 142.257 152.86 142.11 152.86H109.879Z" fill="#E5E5E5"/>
<path d="M275.744 106.216L271.321 104.286C271.299 104.856 271.132 105.412 270.835 105.905C270.538 106.398 270.119 106.813 269.617 107.113C269.114 107.414 268.543 107.59 267.953 107.627C267.363 107.664 266.773 107.561 266.235 107.326L246.825 98.8555C246.286 98.6204 245.816 98.2612 245.455 97.8094C245.094 97.3576 244.854 96.8271 244.756 96.2647C244.658 95.7023 244.704 95.1252 244.891 94.5842C245.079 94.0432 245.401 93.555 245.83 93.1625L241.699 91.36C239.866 90.56 237.778 90.4956 235.896 91.1809C234.014 91.8663 232.49 93.2452 231.661 95.0144L192.049 179.559C191.639 180.435 191.411 181.38 191.379 182.341C191.347 183.302 191.512 184.26 191.863 185.159C192.215 186.059 192.747 186.882 193.428 187.584C194.11 188.285 194.928 188.85 195.836 189.246H195.836L229.88 204.102C231.713 204.902 233.801 204.966 235.683 204.281C237.566 203.596 239.089 202.217 239.918 200.447L279.53 115.903C279.941 115.027 280.168 114.082 280.2 113.121C280.232 112.16 280.067 111.202 279.716 110.303C279.364 109.403 278.832 108.579 278.151 107.878C277.469 107.177 276.651 106.612 275.744 106.216Z" fill="#E4E4E4"/>
<path d="M236.343 146.472C233.362 145.165 230.789 143.124 228.885 140.554C226.98 137.984 225.809 134.976 225.491 131.831C225.459 131.519 225.436 131.198 225.422 130.879C225.293 128.074 225.854 125.281 227.06 122.726C228.183 120.334 229.835 118.209 231.901 116.501C233.967 114.792 236.396 113.542 239.017 112.838C241.638 112.134 244.387 111.994 247.071 112.428C249.754 112.861 252.306 113.857 254.547 115.346C256.788 116.835 258.663 118.781 260.04 121.045C261.417 123.31 262.262 125.838 262.516 128.453C262.77 131.067 262.427 133.703 261.51 136.175C260.593 138.647 259.126 140.895 257.211 142.76C256.498 143.457 255.726 144.094 254.902 144.666C252.245 146.512 249.131 147.651 245.873 147.968C242.615 148.285 239.328 147.769 236.343 146.472ZM251.441 114.248C247.078 112.351 242.114 112.201 237.637 113.831C233.16 115.461 229.536 118.738 227.559 122.944C226.388 125.423 225.844 128.135 225.969 130.856C225.983 131.167 226.005 131.477 226.036 131.78C226.34 134.834 227.474 137.756 229.323 140.251C231.173 142.747 233.672 144.726 236.569 145.99C239.465 147.254 242.657 147.758 245.82 147.45C248.983 147.142 252.005 146.034 254.582 144.237C255.381 143.682 256.13 143.064 256.821 142.388C258.872 140.391 260.391 137.945 261.249 135.259C262.108 132.573 262.28 129.726 261.751 126.961C261.223 124.197 260.009 121.597 258.214 119.383C256.418 117.169 254.094 115.408 251.441 114.248H251.441Z" fill="white"/>
<path d="M238.176 113.347L237.665 113.536L250.676 146.316L251.187 146.127L238.176 113.347Z" fill="white"/>
<path d="M260.588 123.571L226.62 136.126L226.815 136.619L260.783 124.065L260.588 123.571Z" fill="white"/>
<path d="M243.742 172.084L211.609 158.062C211.371 157.958 211.186 157.766 211.093 157.53C211.001 157.294 211.01 157.032 211.117 156.802L214.14 150.351C214.248 150.121 214.446 149.942 214.691 149.853C214.935 149.764 215.207 149.772 215.445 149.876L247.577 163.897C247.815 164.002 248.001 164.193 248.093 164.429C248.186 164.665 248.177 164.927 248.07 165.157L245.047 171.608C244.939 171.838 244.741 172.017 244.496 172.106C244.252 172.195 243.98 172.187 243.742 172.084ZM215.219 150.357C215.113 150.311 214.993 150.308 214.884 150.347C214.775 150.387 214.687 150.466 214.639 150.569L211.616 157.02C211.568 157.122 211.565 157.239 211.606 157.344C211.647 157.449 211.729 157.534 211.835 157.58L243.967 171.602C244.073 171.648 244.194 171.652 244.303 171.612C244.412 171.573 244.5 171.493 244.548 171.391L247.571 164.939C247.619 164.837 247.622 164.72 247.581 164.615C247.54 164.51 247.458 164.425 247.352 164.379L215.219 150.357Z" fill="white"/>
<path d="M235.958 188.697L203.826 174.675C203.588 174.571 203.402 174.379 203.31 174.143C203.217 173.907 203.226 173.645 203.333 173.415L206.356 166.964C206.464 166.734 206.662 166.555 206.907 166.466C207.151 166.377 207.423 166.385 207.661 166.489L239.794 180.51C240.032 180.615 240.217 180.806 240.31 181.042C240.402 181.278 240.393 181.54 240.286 181.77L237.263 188.221C237.155 188.451 236.957 188.63 236.712 188.719C236.468 188.808 236.196 188.8 235.958 188.697ZM207.436 166.97C207.33 166.924 207.209 166.92 207.1 166.96C206.991 167 206.903 167.079 206.855 167.182L203.832 173.633C203.784 173.735 203.781 173.852 203.822 173.957C203.863 174.062 203.945 174.147 204.051 174.193L236.184 188.215C236.29 188.261 236.41 188.265 236.519 188.225C236.628 188.186 236.716 188.106 236.764 188.004L239.787 181.552C239.835 181.45 239.839 181.333 239.797 181.228C239.756 181.123 239.674 181.038 239.568 180.992L207.436 166.97Z" fill="white"/>
<path d="M223.539 146.661C222.878 143.485 221.451 140.503 219.373 137.959C217.26 135.375 214.68 133.182 211.758 131.486C208.737 129.715 205.447 128.414 202.008 127.628C197.734 126.637 193.32 126.314 188.934 126.355C184.515 126.396 180.111 126.796 175.72 127.241C175.162 127.297 174.604 127.354 174.046 127.412C173.526 127.466 173.52 128.259 174.046 128.205C178.372 127.759 182.705 127.321 187.056 127.186C191.371 127.052 195.719 127.216 199.966 128.011C203.503 128.644 206.916 129.809 210.079 131.461C213.026 133.002 215.669 135.031 217.888 137.455C220.061 139.824 221.633 142.65 222.479 145.707C222.581 146.093 222.669 146.481 222.747 146.872C222.846 147.372 223.638 147.16 223.539 146.661Z" fill="#2F2E41"/>
<path d="M176.98 121.739L170.419 128.474C170.375 128.517 170.342 128.569 170.323 128.627C170.303 128.684 170.297 128.745 170.305 128.805C170.313 128.865 170.335 128.922 170.369 128.972C170.403 129.023 170.449 129.065 170.502 129.097L176.421 131.827C176.896 132.046 177.313 131.363 176.836 131.143L170.917 128.412L171 129.035L177.561 122.3C177.923 121.928 177.343 121.367 176.98 121.739Z" fill="#2F2E41"/>
<path d="M316.674 205H191.466C191.379 205 191.296 204.967 191.235 204.908C191.174 204.849 191.14 204.769 191.14 204.685C191.14 204.602 191.174 204.522 191.235 204.463C191.296 204.404 191.379 204.371 191.466 204.371H316.674C316.76 204.371 316.843 204.404 316.904 204.463C316.966 204.522 317 204.602 317 204.685C317 204.769 316.966 204.849 316.904 204.908C316.843 204.967 316.76 205 316.674 205Z" fill="#CACACA"/>
</g>
<path d="M106.146 228.55V239.35C106.146 240.533 106.455 241.442 107.071 242.075C107.688 242.692 108.555 243 109.671 243C110.805 243 111.68 242.692 112.296 242.075C112.913 241.442 113.221 240.533 113.221 239.35V228.55H116.746V239.325C116.746 240.808 116.421 242.067 115.771 243.1C115.138 244.117 114.28 244.883 113.196 245.4C112.13 245.917 110.938 246.175 109.621 246.175C108.321 246.175 107.138 245.917 106.071 245.4C105.021 244.883 104.188 244.117 103.571 243.1C102.955 242.067 102.646 240.808 102.646 239.325V228.55H106.146ZM125.003 228.55V246H121.503V228.55H125.003ZM139.211 222.325L132.461 250.525H129.036L135.786 222.325H139.211ZM146.819 228.55V239.35C146.819 240.533 147.127 241.442 147.744 242.075C148.361 242.692 149.227 243 150.344 243C151.477 243 152.352 242.692 152.969 242.075C153.586 241.442 153.894 240.533 153.894 239.35V228.55H157.419V239.325C157.419 240.808 157.094 242.067 156.444 243.1C155.811 244.117 154.952 244.883 153.869 245.4C152.802 245.917 151.611 246.175 150.294 246.175C148.994 246.175 147.811 245.917 146.744 245.4C145.694 244.883 144.861 244.117 144.244 243.1C143.627 242.067 143.319 240.808 143.319 239.325V228.55H146.819ZM172.626 246L168.851 240.125L165.426 246H161.476L166.976 237.2L161.401 228.55H165.426L169.201 234.4L172.601 228.55H176.551L171.076 237.325L176.651 246H172.626ZM193.646 228.575C195.546 228.575 197.188 228.933 198.571 229.65C199.971 230.35 201.038 231.358 201.771 232.675C202.521 233.992 202.896 235.542 202.896 237.325C202.896 239.108 202.521 240.658 201.771 241.975C201.038 243.275 199.971 244.275 198.571 244.975C197.188 245.658 195.546 246 193.646 246H188.221V228.575H193.646ZM193.646 244.125C195.896 244.125 197.613 243.533 198.796 242.35C199.98 241.15 200.571 239.475 200.571 237.325C200.571 235.158 199.971 233.467 198.771 232.25C197.588 231.033 195.88 230.425 193.646 230.425H190.496V244.125H193.646ZM219.772 238.625C219.772 239.058 219.747 239.517 219.697 240H208.747C208.831 241.35 209.289 242.408 210.122 243.175C210.972 243.925 211.997 244.3 213.197 244.3C214.181 244.3 214.997 244.075 215.647 243.625C216.314 243.158 216.781 242.542 217.047 241.775H219.497C219.131 243.092 218.397 244.167 217.297 245C216.197 245.817 214.831 246.225 213.197 246.225C211.897 246.225 210.731 245.933 209.697 245.35C208.681 244.767 207.881 243.942 207.297 242.875C206.714 241.792 206.422 240.542 206.422 239.125C206.422 237.708 206.706 236.467 207.272 235.4C207.839 234.333 208.631 233.517 209.647 232.95C210.681 232.367 211.864 232.075 213.197 232.075C214.497 232.075 215.647 232.358 216.647 232.925C217.647 233.492 218.414 234.275 218.947 235.275C219.497 236.258 219.772 237.375 219.772 238.625ZM217.422 238.15C217.422 237.283 217.231 236.542 216.847 235.925C216.464 235.292 215.939 234.817 215.272 234.5C214.622 234.167 213.897 234 213.097 234C211.947 234 210.964 234.367 210.147 235.1C209.347 235.833 208.889 236.85 208.772 238.15H217.422ZM229 246.225C227.95 246.225 227.008 246.05 226.175 245.7C225.342 245.333 224.683 244.833 224.2 244.2C223.717 243.55 223.45 242.808 223.4 241.975H225.75C225.817 242.658 226.133 243.217 226.7 243.65C227.283 244.083 228.042 244.3 228.975 244.3C229.842 244.3 230.525 244.108 231.025 243.725C231.525 243.342 231.775 242.858 231.775 242.275C231.775 241.675 231.508 241.233 230.975 240.95C230.442 240.65 229.617 240.358 228.5 240.075C227.483 239.808 226.65 239.542 226 239.275C225.367 238.992 224.817 238.583 224.35 238.05C223.9 237.5 223.675 236.783 223.675 235.9C223.675 235.2 223.883 234.558 224.3 233.975C224.717 233.392 225.308 232.933 226.075 232.6C226.842 232.25 227.717 232.075 228.7 232.075C230.217 232.075 231.442 232.458 232.375 233.225C233.308 233.992 233.808 235.042 233.875 236.375H231.6C231.55 235.658 231.258 235.083 230.725 234.65C230.208 234.217 229.508 234 228.625 234C227.808 234 227.158 234.175 226.675 234.525C226.192 234.875 225.95 235.333 225.95 235.9C225.95 236.35 226.092 236.725 226.375 237.025C226.675 237.308 227.042 237.542 227.475 237.725C227.925 237.892 228.542 238.083 229.325 238.3C230.308 238.567 231.108 238.833 231.725 239.1C232.342 239.35 232.867 239.733 233.3 240.25C233.75 240.767 233.983 241.442 234 242.275C234 243.025 233.792 243.7 233.375 244.3C232.958 244.9 232.367 245.375 231.6 245.725C230.85 246.058 229.983 246.225 229 246.225ZM239.762 230.075C239.328 230.075 238.962 229.925 238.662 229.625C238.362 229.325 238.212 228.958 238.212 228.525C238.212 228.092 238.362 227.725 238.662 227.425C238.962 227.125 239.328 226.975 239.762 226.975C240.178 226.975 240.528 227.125 240.812 227.425C241.112 227.725 241.262 228.092 241.262 228.525C241.262 228.958 241.112 229.325 240.812 229.625C240.528 229.925 240.178 230.075 239.762 230.075ZM240.862 232.3V246H238.587V232.3H240.862ZM251.764 232.075C252.947 232.075 253.981 232.333 254.864 232.85C255.764 233.367 256.431 234.017 256.864 234.8V232.3H259.164V246.3C259.164 247.55 258.897 248.658 258.364 249.625C257.831 250.608 257.064 251.375 256.064 251.925C255.081 252.475 253.931 252.75 252.614 252.75C250.814 252.75 249.314 252.325 248.114 251.475C246.914 250.625 246.206 249.467 245.989 248H248.239C248.489 248.833 249.006 249.5 249.789 250C250.572 250.517 251.514 250.775 252.614 250.775C253.864 250.775 254.881 250.383 255.664 249.6C256.464 248.817 256.864 247.717 256.864 246.3V243.425C256.414 244.225 255.747 244.892 254.864 245.425C253.981 245.958 252.947 246.225 251.764 246.225C250.547 246.225 249.439 245.925 248.439 245.325C247.456 244.725 246.681 243.883 246.114 242.8C245.547 241.717 245.264 240.483 245.264 239.1C245.264 237.7 245.547 236.475 246.114 235.425C246.681 234.358 247.456 233.533 248.439 232.95C249.439 232.367 250.547 232.075 251.764 232.075ZM256.864 239.125C256.864 238.092 256.656 237.192 256.239 236.425C255.822 235.658 255.256 235.075 254.539 234.675C253.839 234.258 253.064 234.05 252.214 234.05C251.364 234.05 250.589 234.25 249.889 234.65C249.189 235.05 248.631 235.633 248.214 236.4C247.797 237.167 247.589 238.067 247.589 239.1C247.589 240.15 247.797 241.067 248.214 241.85C248.631 242.617 249.189 243.208 249.889 243.625C250.589 244.025 251.364 244.225 252.214 244.225C253.064 244.225 253.839 244.025 254.539 243.625C255.256 243.208 255.822 242.617 256.239 241.85C256.656 241.067 256.864 240.158 256.864 239.125ZM271.058 232.05C272.725 232.05 274.075 232.558 275.108 233.575C276.142 234.575 276.658 236.025 276.658 237.925V246H274.408V238.25C274.408 236.883 274.067 235.842 273.383 235.125C272.7 234.392 271.767 234.025 270.583 234.025C269.383 234.025 268.425 234.4 267.708 235.15C267.008 235.9 266.658 236.992 266.658 238.425V246H264.383V232.3H266.658V234.25C267.108 233.55 267.717 233.008 268.483 232.625C269.267 232.242 270.125 232.05 271.058 232.05ZM294.25 238.625C294.25 239.058 294.225 239.517 294.175 240H283.225C283.308 241.35 283.766 242.408 284.6 243.175C285.45 243.925 286.475 244.3 287.675 244.3C288.658 244.3 289.475 244.075 290.125 243.625C290.791 243.158 291.258 242.542 291.525 241.775H293.975C293.608 243.092 292.875 244.167 291.775 245C290.675 245.817 289.308 246.225 287.675 246.225C286.375 246.225 285.208 245.933 284.175 245.35C283.158 244.767 282.358 243.942 281.775 242.875C281.191 241.792 280.9 240.542 280.9 239.125C280.9 237.708 281.183 236.467 281.75 235.4C282.316 234.333 283.108 233.517 284.125 232.95C285.158 232.367 286.341 232.075 287.675 232.075C288.975 232.075 290.125 232.358 291.125 232.925C292.125 233.492 292.891 234.275 293.425 235.275C293.975 236.258 294.25 237.375 294.25 238.625ZM291.9 238.15C291.9 237.283 291.708 236.542 291.325 235.925C290.941 235.292 290.416 234.817 289.75 234.5C289.1 234.167 288.375 234 287.575 234C286.425 234 285.441 234.367 284.625 235.1C283.825 235.833 283.366 236.85 283.25 238.15H291.9ZM300.903 234.525C301.303 233.742 301.869 233.133 302.603 232.7C303.353 232.267 304.261 232.05 305.328 232.05V234.4H304.728C302.178 234.4 300.903 235.783 300.903 238.55V246H298.628V232.3H300.903V234.525Z" fill="black"/>
<path d="M83.3528 283.348C82.2008 282.22 81.3008 280.786 80.6528 279.046C80.0168 277.306 79.6988 275.428 79.6988 273.412C79.6988 271.348 80.0348 269.422 80.7068 267.634C81.3908 265.834 82.3628 264.352 83.6228 263.188H85.3328V263.35C83.9888 264.61 82.9748 266.128 82.2908 267.904C81.6188 269.668 81.2828 271.504 81.2828 273.412C81.2828 275.272 81.6008 277.048 82.2368 278.74C82.8848 280.432 83.8268 281.914 85.0628 283.186V283.348H83.3528ZM95.3966 267.454V268.786H89.9426V273.016H94.3706V274.348H89.9426V280H88.3046V267.454H95.3966ZM99.2109 268.534C98.8989 268.534 98.6349 268.426 98.4189 268.21C98.2029 267.994 98.0949 267.73 98.0949 267.418C98.0949 267.106 98.2029 266.842 98.4189 266.626C98.6349 266.41 98.8989 266.302 99.2109 266.302C99.5109 266.302 99.7629 266.41 99.9669 266.626C100.183 266.842 100.291 267.106 100.291 267.418C100.291 267.73 100.183 267.994 99.9669 268.21C99.7629 268.426 99.5109 268.534 99.2109 268.534ZM100.003 270.136V280H98.3649V270.136H100.003ZM107.853 269.974C108.705 269.974 109.449 270.16 110.085 270.532C110.733 270.904 111.213 271.372 111.525 271.936V270.136H113.181V280.216C113.181 281.116 112.989 281.914 112.605 282.61C112.221 283.318 111.669 283.87 110.949 284.266C110.241 284.662 109.413 284.86 108.465 284.86C107.169 284.86 106.089 284.554 105.225 283.942C104.361 283.33 103.851 282.496 103.695 281.44H105.315C105.495 282.04 105.867 282.52 106.431 282.88C106.995 283.252 107.673 283.438 108.465 283.438C109.365 283.438 110.097 283.156 110.661 282.592C111.237 282.028 111.525 281.236 111.525 280.216V278.146C111.201 278.722 110.721 279.202 110.085 279.586C109.449 279.97 108.705 280.162 107.853 280.162C106.977 280.162 106.179 279.946 105.459 279.514C104.751 279.082 104.193 278.476 103.785 277.696C103.377 276.916 103.173 276.028 103.173 275.032C103.173 274.024 103.377 273.142 103.785 272.386C104.193 271.618 104.751 271.024 105.459 270.604C106.179 270.184 106.977 269.974 107.853 269.974ZM111.525 275.05C111.525 274.306 111.375 273.658 111.075 273.106C110.775 272.554 110.367 272.134 109.851 271.846C109.347 271.546 108.789 271.396 108.177 271.396C107.565 271.396 107.007 271.54 106.503 271.828C105.999 272.116 105.597 272.536 105.297 273.088C104.997 273.64 104.847 274.288 104.847 275.032C104.847 275.788 104.997 276.448 105.297 277.012C105.597 277.564 105.999 277.99 106.503 278.29C107.007 278.578 107.565 278.722 108.177 278.722C108.789 278.722 109.347 278.578 109.851 278.29C110.367 277.99 110.775 277.564 111.075 277.012C111.375 276.448 111.525 275.794 111.525 275.05ZM128.801 269.956C129.569 269.956 130.253 270.118 130.853 270.442C131.453 270.754 131.927 271.228 132.275 271.864C132.623 272.5 132.797 273.274 132.797 274.186V280H131.177V274.42C131.177 273.436 130.931 272.686 130.439 272.17C129.959 271.642 129.305 271.378 128.477 271.378C127.625 271.378 126.947 271.654 126.443 272.206C125.939 272.746 125.687 273.532 125.687 274.564V280H124.067V274.42C124.067 273.436 123.821 272.686 123.329 272.17C122.849 271.642 122.195 271.378 121.367 271.378C120.515 271.378 119.837 271.654 119.333 272.206C118.829 272.746 118.577 273.532 118.577 274.564V280H116.939V270.136H118.577V271.558C118.901 271.042 119.333 270.646 119.873 270.37C120.425 270.094 121.031 269.956 121.691 269.956C122.519 269.956 123.251 270.142 123.887 270.514C124.523 270.886 124.997 271.432 125.309 272.152C125.585 271.456 126.041 270.916 126.677 270.532C127.313 270.148 128.021 269.956 128.801 269.956ZM135.862 275.032C135.862 274.024 136.066 273.142 136.474 272.386C136.882 271.618 137.44 271.024 138.148 270.604C138.868 270.184 139.666 269.974 140.542 269.974C141.406 269.974 142.156 270.16 142.792 270.532C143.428 270.904 143.902 271.372 144.214 271.936V270.136H145.87V280H144.214V278.164C143.89 278.74 143.404 279.22 142.756 279.604C142.12 279.976 141.376 280.162 140.524 280.162C139.648 280.162 138.856 279.946 138.148 279.514C137.44 279.082 136.882 278.476 136.474 277.696C136.066 276.916 135.862 276.028 135.862 275.032ZM144.214 275.05C144.214 274.306 144.064 273.658 143.764 273.106C143.464 272.554 143.056 272.134 142.54 271.846C142.036 271.546 141.478 271.396 140.866 271.396C140.254 271.396 139.696 271.54 139.192 271.828C138.688 272.116 138.286 272.536 137.986 273.088C137.686 273.64 137.536 274.288 137.536 275.032C137.536 275.788 137.686 276.448 137.986 277.012C138.286 277.564 138.688 277.99 139.192 278.29C139.696 278.578 140.254 278.722 140.866 278.722C141.478 278.722 142.036 278.578 142.54 278.29C143.056 277.99 143.464 277.564 143.764 277.012C144.064 276.448 144.214 275.794 144.214 275.05ZM151.32 277.732L149.304 282.574H148.206L149.52 277.732H151.32ZM161.361 278.578H167.481V280H159.417V278.704L165.501 268.876H159.489V267.454H167.445V268.75L161.361 278.578ZM179.703 274.69C179.703 275.002 179.685 275.332 179.649 275.68H171.765C171.825 276.652 172.155 277.414 172.755 277.966C173.367 278.506 174.105 278.776 174.969 278.776C175.677 278.776 176.265 278.614 176.733 278.29C177.213 277.954 177.549 277.51 177.741 276.958H179.505C179.241 277.906 178.713 278.68 177.921 279.28C177.129 279.868 176.145 280.162 174.969 280.162C174.033 280.162 173.193 279.952 172.449 279.532C171.717 279.112 171.141 278.518 170.721 277.75C170.301 276.97 170.091 276.07 170.091 275.05C170.091 274.03 170.295 273.136 170.703 272.368C171.111 271.6 171.681 271.012 172.413 270.604C173.157 270.184 174.009 269.974 174.969 269.974C175.905 269.974 176.733 270.178 177.453 270.586C178.173 270.994 178.725 271.558 179.109 272.278C179.505 272.986 179.703 273.79 179.703 274.69ZM178.011 274.348C178.011 273.724 177.873 273.19 177.597 272.746C177.321 272.29 176.943 271.948 176.463 271.72C175.995 271.48 175.473 271.36 174.897 271.36C174.069 271.36 173.361 271.624 172.773 272.152C172.197 272.68 171.867 273.412 171.783 274.348H178.011ZM184.493 271.954C184.817 271.39 185.297 270.922 185.933 270.55C186.581 270.166 187.331 269.974 188.183 269.974C189.059 269.974 189.851 270.184 190.559 270.604C191.279 271.024 191.843 271.618 192.251 272.386C192.659 273.142 192.863 274.024 192.863 275.032C192.863 276.028 192.659 276.916 192.251 277.696C191.843 278.476 191.279 279.082 190.559 279.514C189.851 279.946 189.059 280.162 188.183 280.162C187.343 280.162 186.599 279.976 185.951 279.604C185.315 279.22 184.829 278.746 184.493 278.182V284.68H182.855V270.136H184.493V271.954ZM191.189 275.032C191.189 274.288 191.039 273.64 190.739 273.088C190.439 272.536 190.031 272.116 189.515 271.828C189.011 271.54 188.453 271.396 187.841 271.396C187.241 271.396 186.683 271.546 186.167 271.846C185.663 272.134 185.255 272.56 184.943 273.124C184.643 273.676 184.493 274.318 184.493 275.05C184.493 275.794 184.643 276.448 184.943 277.012C185.255 277.564 185.663 277.99 186.167 278.29C186.683 278.578 187.241 278.722 187.841 278.722C188.453 278.722 189.011 278.578 189.515 278.29C190.031 277.99 190.439 277.564 190.739 277.012C191.039 276.448 191.189 275.788 191.189 275.032ZM197.647 266.68V280H196.009V266.68H197.647ZM202.275 268.534C201.963 268.534 201.699 268.426 201.483 268.21C201.267 267.994 201.159 267.73 201.159 267.418C201.159 267.106 201.267 266.842 201.483 266.626C201.699 266.41 201.963 266.302 202.275 266.302C202.575 266.302 202.827 266.41 203.031 266.626C203.247 266.842 203.355 267.106 203.355 267.418C203.355 267.73 203.247 267.994 203.031 268.21C202.827 268.426 202.575 268.534 202.275 268.534ZM203.067 270.136V280H201.429V270.136H203.067ZM211.655 269.956C212.855 269.956 213.827 270.322 214.571 271.054C215.315 271.774 215.687 272.818 215.687 274.186V280H214.067V274.42C214.067 273.436 213.821 272.686 213.329 272.17C212.837 271.642 212.165 271.378 211.313 271.378C210.449 271.378 209.759 271.648 209.243 272.188C208.739 272.728 208.487 273.514 208.487 274.546V280H206.849V270.136H208.487V271.54C208.811 271.036 209.249 270.646 209.801 270.37C210.365 270.094 210.983 269.956 211.655 269.956ZM221.044 277.732L219.028 282.574H217.93L219.244 277.732H221.044ZM237.116 277.21H231.644L230.636 280H228.908L233.444 267.526H235.334L239.852 280H238.124L237.116 277.21ZM236.648 275.878L234.38 269.542L232.112 275.878H236.648ZM242.206 275.032C242.206 274.024 242.41 273.142 242.818 272.386C243.226 271.618 243.784 271.024 244.492 270.604C245.212 270.184 246.016 269.974 246.904 269.974C247.672 269.974 248.386 270.154 249.046 270.514C249.706 270.862 250.21 271.324 250.558 271.9V266.68H252.214V280H250.558V278.146C250.234 278.734 249.754 279.22 249.118 279.604C248.482 279.976 247.738 280.162 246.886 280.162C246.01 280.162 245.212 279.946 244.492 279.514C243.784 279.082 243.226 278.476 242.818 277.696C242.41 276.916 242.206 276.028 242.206 275.032ZM250.558 275.05C250.558 274.306 250.408 273.658 250.108 273.106C249.808 272.554 249.4 272.134 248.884 271.846C248.38 271.546 247.822 271.396 247.21 271.396C246.598 271.396 246.04 271.54 245.536 271.828C245.032 272.116 244.63 272.536 244.33 273.088C244.03 273.64 243.88 274.288 243.88 275.032C243.88 275.788 244.03 276.448 244.33 277.012C244.63 277.564 245.032 277.99 245.536 278.29C246.04 278.578 246.598 278.722 247.21 278.722C247.822 278.722 248.38 278.578 248.884 278.29C249.4 277.99 249.808 277.564 250.108 277.012C250.408 276.448 250.558 275.794 250.558 275.05ZM260.274 280.162C259.35 280.162 258.51 279.952 257.754 279.532C257.01 279.112 256.422 278.518 255.99 277.75C255.57 276.97 255.36 276.07 255.36 275.05C255.36 274.042 255.576 273.154 256.008 272.386C256.452 271.606 257.052 271.012 257.808 270.604C258.564 270.184 259.41 269.974 260.346 269.974C261.282 269.974 262.128 270.184 262.884 270.604C263.64 271.012 264.234 271.6 264.666 272.368C265.11 273.136 265.332 274.03 265.332 275.05C265.332 276.07 265.104 276.97 264.648 277.75C264.204 278.518 263.598 279.112 262.83 279.532C262.062 279.952 261.21 280.162 260.274 280.162ZM260.274 278.722C260.862 278.722 261.414 278.584 261.93 278.308C262.446 278.032 262.86 277.618 263.172 277.066C263.496 276.514 263.658 275.842 263.658 275.05C263.658 274.258 263.502 273.586 263.19 273.034C262.878 272.482 262.47 272.074 261.966 271.81C261.462 271.534 260.916 271.396 260.328 271.396C259.728 271.396 259.176 271.534 258.672 271.81C258.18 272.074 257.784 272.482 257.484 273.034C257.184 273.586 257.034 274.258 257.034 275.05C257.034 275.854 257.178 276.532 257.466 277.084C257.766 277.636 258.162 278.05 258.654 278.326C259.146 278.59 259.686 278.722 260.274 278.722ZM270.114 271.972C270.45 271.384 270.942 270.904 271.59 270.532C272.238 270.16 272.976 269.974 273.804 269.974C274.692 269.974 275.49 270.184 276.198 270.604C276.906 271.024 277.464 271.618 277.872 272.386C278.28 273.142 278.484 274.024 278.484 275.032C278.484 276.028 278.28 276.916 277.872 277.696C277.464 278.476 276.9 279.082 276.18 279.514C275.472 279.946 274.68 280.162 273.804 280.162C272.952 280.162 272.202 279.976 271.554 279.604C270.918 279.232 270.438 278.758 270.114 278.182V280H268.476V266.68H270.114V271.972ZM276.81 275.032C276.81 274.288 276.66 273.64 276.36 273.088C276.06 272.536 275.652 272.116 275.136 271.828C274.632 271.54 274.074 271.396 273.462 271.396C272.862 271.396 272.304 271.546 271.788 271.846C271.284 272.134 270.876 272.56 270.564 273.124C270.264 273.676 270.114 274.318 270.114 275.05C270.114 275.794 270.264 276.448 270.564 277.012C270.876 277.564 271.284 277.99 271.788 278.29C272.304 278.578 272.862 278.722 273.462 278.722C274.074 278.722 274.632 278.578 275.136 278.29C275.652 277.99 276.06 277.564 276.36 277.012C276.66 276.448 276.81 275.788 276.81 275.032ZM290.63 274.69C290.63 275.002 290.612 275.332 290.576 275.68H282.692C282.752 276.652 283.082 277.414 283.682 277.966C284.294 278.506 285.032 278.776 285.896 278.776C286.604 278.776 287.192 278.614 287.66 278.29C288.14 277.954 288.476 277.51 288.668 276.958H290.432C290.168 277.906 289.64 278.68 288.848 279.28C288.056 279.868 287.072 280.162 285.896 280.162C284.96 280.162 284.12 279.952 283.376 279.532C282.644 279.112 282.068 278.518 281.648 277.75C281.228 276.97 281.018 276.07 281.018 275.05C281.018 274.03 281.222 273.136 281.63 272.368C282.038 271.6 282.608 271.012 283.34 270.604C284.084 270.184 284.936 269.974 285.896 269.974C286.832 269.974 287.66 270.178 288.38 270.586C289.1 270.994 289.652 271.558 290.036 272.278C290.432 272.986 290.63 273.79 290.63 274.69ZM288.938 274.348C288.938 273.724 288.8 273.19 288.524 272.746C288.248 272.29 287.87 271.948 287.39 271.72C286.922 271.48 286.4 271.36 285.824 271.36C284.996 271.36 284.288 271.624 283.7 272.152C283.124 272.68 282.794 273.412 282.71 274.348H288.938ZM304.701 273.736L308.553 280H306.699L303.693 275.104L300.831 280H299.013L302.847 273.736L298.995 267.454H300.831L303.855 272.368L306.735 267.454H308.571L304.701 273.736ZM315.647 267.454C317.015 267.454 318.197 267.712 319.193 268.228C320.201 268.732 320.969 269.458 321.497 270.406C322.037 271.354 322.307 272.47 322.307 273.754C322.307 275.038 322.037 276.154 321.497 277.102C320.969 278.038 320.201 278.758 319.193 279.262C318.197 279.754 317.015 280 315.647 280H311.741V267.454H315.647ZM315.647 278.65C317.267 278.65 318.503 278.224 319.355 277.372C320.207 276.508 320.633 275.302 320.633 273.754C320.633 272.194 320.201 270.976 319.337 270.1C318.485 269.224 317.255 268.786 315.647 268.786H313.379V278.65H315.647ZM324.935 283.348V283.186C326.171 281.914 327.107 280.432 327.743 278.74C328.391 277.048 328.715 275.272 328.715 273.412C328.715 271.504 328.373 269.668 327.689 267.904C327.017 266.128 326.009 264.61 324.665 263.35V263.188H326.375C327.635 264.352 328.601 265.834 329.273 267.634C329.957 269.422 330.299 271.348 330.299 273.412C330.299 275.428 329.975 277.306 329.327 279.046C328.691 280.786 327.797 282.22 326.645 283.348H324.935Z" fill="black"/>
<defs>
<filter id="filter0_d_6:309" x="0" y="0" width="409" height="342" filterUnits="userSpaceOnUse" color-interpolation-filters="sRGB">
<feFlood flood-opacity="0" result="BackgroundImageFix"/>
<feColorMatrix in="SourceAlpha" type="matrix" values="0 0 0 0 0 0 0 0 0 0 0 0 0 0 0 0 0 0 127 0" result="hardAlpha"/>
<feMorphology radius="5" operator="dilate" in="SourceAlpha" result="effect1_dropShadow_6:309"/>
<feOffset dy="5"/>
<feGaussianBlur stdDeviation="13"/>
<feComposite in2="hardAlpha" operator="out"/>
<feColorMatrix type="matrix" values="0 0 0 0 0 0 0 0 0 0 0 0 0 0 0 0 0 0 0.17 0"/>
<feBlend mode="normal" in2="BackgroundImageFix" result="effect1_dropShadow_6:309"/>
<feBlend mode="normal" in="SourceGraphic" in2="effect1_dropShadow_6:309" result="shape"/>
</filter>
<clipPath id="clip0_6:309">
<rect width="225" height="159" fill="white" transform="translate(92 46)"/>
</clipPath>
</defs>
</svg>
